<?xml version="1.0" encoding="UTF-8" standalone="no"?>
<!-- Created with Inkscape (http://www.inkscape.org/) -->

<svg
   xmlns:dc="http://purl.org/dc/elements/1.1/"
   xmlns:cc="http://creativecommons.org/ns#"
   xmlns:rdf="http://www.w3.org/1999/02/22-rdf-syntax-ns#"
   xmlns:svg="http://www.w3.org/2000/svg"
   xmlns="http://www.w3.org/2000/svg"
   xmlns:sodipodi="http://sodipodi.sourceforge.net/DTD/sodipodi-0.dtd"
   xmlns:inkscape="http://www.inkscape.org/namespaces/inkscape"
   width="43.349331mm"
   height="43.349331mm"
   viewBox="0 0 43.349331 43.349331"
   version="1.1"
   id="svg8"
   inkscape:version="0.92.4 (33fec40, 2019-01-16)"
   sodipodi:docname="mate.svg">
  <defs
     id="defs2" />
  <sodipodi:namedview
     id="base"
     pagecolor="#ffffff"
     bordercolor="#666666"
     borderopacity="1.0"
     inkscape:pageopacity="0.0"
     inkscape:pageshadow="2"
     inkscape:zoom="2.8"
     inkscape:cx="120.93736"
     inkscape:cy="36.788901"
     inkscape:document-units="mm"
     inkscape:current-layer="layer1"
     showgrid="false"
     inkscape:pagecheckerboard="false"
     fit-margin-top="0"
     fit-margin-left="0"
     fit-margin-right="0"
     fit-margin-bottom="0"
     inkscape:window-width="1861"
     inkscape:window-height="1027"
     inkscape:window-x="59"
     inkscape:window-y="27"
     inkscape:window-maximized="1" />
  <metadata
     id="metadata5">
    <rdf:RDF>
      <cc:Work
         rdf:about="">
        <dc:format>image/svg+xml</dc:format>
        <dc:type
           rdf:resource="http://purl.org/dc/dcmitype/StillImage" />
        <dc:title></dc:title>
      </cc:Work>
    </rdf:RDF>
  </metadata>
  <g
     inkscape:label="Capa 1"
     inkscape:groupmode="layer"
     id="layer1"
     transform="translate(-3.0071824,-0.3098525)">
    <g
       id="g295"
       transform="translate(-2.8348214,-1.5119045)">
      <path
         style="fill:#fefefe;stroke-width:0.08466666"
         d="M 5.8420038,23.496423 V 1.821757 H 27.516669 49.191335 V 23.496423 45.171088 H 27.516669 5.8420038 Z"
         id="path311"
         inkscape:connector-curvature="0" />
      <path
         style="fill:#aaaaaa;stroke-width:0.08466666"
         d="m 24.934336,40.554228 c -2.593385,-0.332039 -4.626345,-1.098263 -6.307666,-2.377364 -0.559783,-0.425867 -1.542262,-1.438961 -1.961648,-2.022776 -1.261046,-1.755461 -1.935118,-4.506314 -1.685679,-6.879166 0.18698,-1.7787 0.560227,-3.086139 1.299171,-4.550833 0.369382,-0.732169 0.545206,-1.018992 1.09996,-1.794373 l 0.254017,-0.355041 -0.273159,-0.344891 c -0.339287,-0.428386 -0.415769,-0.883819 -0.213958,-1.274078 0.08028,-0.155253 0.164028,-0.399578 0.186097,-0.542947 0.103146,-0.670047 0.787233,-1.244512 2.111613,-1.773238 1.931294,-0.77102 4.543488,-1.152158 7.904252,-1.153287 1.993695,-6.77e-4 2.751171,0.05224 4.395914,0.307073 0.850708,0.131804 0.886449,0.131009 0.999769,-0.02226 0.06464,-0.08742 0.457644,-0.825704 0.873352,-1.640621 0.415709,-0.814917 1.003963,-1.954102 1.307233,-2.531524 0.42982,-0.818369 0.530151,-1.075461 0.455028,-1.165979 -0.131646,-0.158624 -0.0262,-1.115243 0.143611,-1.302884 0.07209,-0.07966 0.243855,-0.167399 0.38169,-0.194965 0.156306,-0.03126 0.287229,-0.130497 0.347929,-0.263718 0.05353,-0.117478 0.15788,-0.2162 0.231898,-0.219381 0.07402,-0.0032 0.363175,-0.298176 0.642575,-0.6555437 0.2794,-0.3573672 1.253002,-1.5263389 2.163559,-2.597715 0.910557,-1.071376 1.935407,-2.3038658 2.277443,-2.7388662 l 0.621885,-0.7909097 0.770557,0.02891 c 0.84832,0.031827 1.429549,0.2472446 1.469689,0.5447014 0.02315,0.1715893 -0.02417,0.2271175 -2.985133,3.5029797 -1.750148,1.9362743 -2.391721,2.6982085 -2.801553,3.3271355 l -0.207594,0.318575 0.185553,0.250974 c 0.160694,0.21735 0.171808,0.281142 0.08295,0.476156 -0.06238,0.136916 -0.08125,0.367579 -0.04812,0.588463 0.05418,0.361289 0.05246,0.364312 -0.314046,0.550955 -0.202688,0.103221 -0.419128,0.259558 -0.480976,0.347416 -0.08856,0.125806 -0.17422,0.148155 -0.403194,0.105199 l -0.290743,-0.05454 -0.330611,0.708115 c -0.181836,0.389463 -0.732202,1.468664 -1.223036,2.398225 l -0.892425,1.690109 0.769445,0.370074 c 0.93786,0.451074 1.552463,1.016461 1.642012,1.510522 0.03262,0.179952 0.111359,0.430068 0.174986,0.555814 0.234903,0.464242 0.132246,0.988887 -0.280132,1.431671 l -0.205793,0.220967 0.569077,0.837366 c 0.948051,1.395011 1.537205,2.797259 1.904921,4.533916 0.241812,1.142034 0.265088,3.403865 0.04529,4.400714 -0.636475,2.886559 -2.151242,4.985592 -4.665833,6.465508 -2.590683,1.524698 -6.348399,2.209627 -9.740174,1.775368 z"
         id="path309"
         inkscape:connector-curvature="0" />
      <path
         style="fill:#969696;stroke-width:0.08466666"
         d="m 25.146003,40.555471 c -3.155706,-0.353645 -5.622563,-1.420749 -7.418275,-3.208974 -1.822947,-1.815346 -2.741311,-4.175951 -2.741609,-7.047162 -1.69e-4,-1.909954 0.416174,-3.748042 1.224573,-5.405913 0.366315,-0.751238 1.005537,-1.773211 1.332411,-2.130222 l 0.167451,-0.182889 0.606225,0.32504 c 0.694095,0.372154 2.016048,0.834721 2.807557,0.982396 0.09313,0.01738 0.531284,0.106329 0.973667,0.197672 1.203229,0.248443 3.140438,0.437787 4.191,0.409631 l 0.931333,-0.02496 v -1.312333 -1.312333 l -0.508,-0.01981 c -3.179323,-0.124005 -5.677985,-0.560239 -6.488752,-1.132852 -0.300577,-0.212285 -0.380574,-0.551472 -0.18286,-0.775318 0.582033,-0.658957 3.294669,-1.239442 5.824945,-1.246496 1.438778,-0.004 1.415921,0.0063 1.382241,-0.625904 l -0.02757,-0.517616 1.227667,0.02191 c 1.185169,0.02116 2.097072,0.09851 3.344333,0.283677 0.956551,0.142011 0.91605,0.09595 0.590631,0.671675 -0.156807,0.277421 -0.266666,0.5044 -0.244132,0.5044 0.02253,0 -0.242199,0.55547 -0.588297,1.234379 l -0.629269,1.234378 0.435534,-0.05639 c 0.239543,-0.03102 0.751819,-0.132609 1.13839,-0.225764 0.386572,-0.09316 0.760025,-0.147436 0.829897,-0.120623 0.07321,0.02809 0.104703,0.01261 0.07432,-0.03655 -0.02899,-0.04691 0.130952,-0.41349 0.355436,-0.814617 0.224483,-0.401127 0.520582,-0.933808 0.657996,-1.183735 0.137415,-0.249927 0.300123,-0.454413 0.361574,-0.454413 0.212243,0 1.555768,0.702732 1.678483,0.877931 0.0677,0.09666 0.123098,0.145296 0.123098,0.108078 0,-0.202575 0.440894,0.497369 0.483498,0.76758 0.02781,0.17641 0.120905,0.45353 0.20687,0.615824 0.264029,0.498465 0.195799,0.791712 -0.315481,1.35592 l -0.19181,0.211667 0.461543,0.635 c 0.871995,1.19971 1.58015,2.76314 1.93666,4.275666 0.741576,3.146208 0.2836,6.075768 -1.318672,8.435219 -2.311105,3.403252 -7.394981,5.280508 -12.692607,4.68683 z"
         id="path307"
         inkscape:connector-curvature="0" />
      <path
         style="fill:#848484;stroke-width:0.08466666"
         d="m 25.587594,40.598778 c -4.545365,-0.380464 -7.940037,-2.377357 -9.571823,-5.63056 -0.759054,-1.513286 -0.988516,-2.61876 -0.984043,-4.740796 0.0037,-1.746387 0.124569,-2.538064 0.597477,-3.912757 0.418858,-1.217574 1.339454,-2.925987 1.914067,-3.552062 l 0.168403,-0.183486 0.436331,0.257674 c 0.90061,0.531855 2.378279,1.011822 3.99233,1.296763 2.859307,0.504775 6.747152,0.521787 9.953842,0.04356 1.441118,-0.214922 3.548781,-0.890569 4.240589,-1.359393 0.202529,-0.13725 0.394748,-0.250238 0.427151,-0.251086 0.120012,-0.0031 1.175254,1.683153 1.537818,2.457452 0.685305,1.463557 0.990716,2.594831 1.148594,4.254527 0.12073,1.269181 0.0073,2.555551 -0.335562,3.806807 -1.082786,3.951114 -4.550091,6.640541 -9.521765,7.385589 -1.088078,0.163058 -2.89347,0.220679 -4.003409,0.127773 z m 0.405075,-18.884183 c -2.008364,-0.0954 -3.409092,-0.283405 -4.571999,-0.613645 -0.77294,-0.219498 -1.077723,-0.377906 -1.300049,-0.675687 -0.147165,-0.197111 -0.155202,-0.254564 -0.06039,-0.431713 0.601172,-1.123299 6.941673,-1.714637 11.372276,-1.060619 0.360892,0.05327 0.656167,0.110916 0.656167,0.128095 0,0.01718 -0.272363,0.577499 -0.605252,1.245154 l -0.605253,1.213918 -0.993413,0.110461 c -0.546377,0.06075 -1.140788,0.08491 -1.320914,0.05369 -0.23517,-0.04077 -0.291696,-0.03238 -0.200501,0.02974 0.145285,0.09897 -0.297692,0.09908 -2.370667,5.93e-4 z m 7.450667,-0.808155 c 0,-0.02874 0.140638,-0.31989 0.312528,-0.646998 l 0.312528,-0.594742 0.195472,0.227249 c 0.241805,0.281115 0.242173,0.324975 0.005,0.592762 -0.180446,0.203712 -0.8255,0.533257 -0.8255,0.421729 z"
         id="path305"
         inkscape:connector-curvature="0" />
      <path
         style="fill:#777777;stroke-width:0.08466666"
         d="m 25.587594,40.598778 c -4.545365,-0.380464 -7.940037,-2.377357 -9.571823,-5.63056 -0.759054,-1.513286 -0.988516,-2.61876 -0.984043,-4.740796 0.0037,-1.746387 0.124569,-2.538064 0.597477,-3.912757 0.418858,-1.217574 1.339454,-2.925987 1.914067,-3.552062 l 0.168403,-0.183486 0.436331,0.257674 c 0.90061,0.531855 2.378279,1.011822 3.99233,1.296763 2.859307,0.504775 6.747152,0.521787 9.953842,0.04356 1.441118,-0.214922 3.548781,-0.890569 4.240589,-1.359393 0.202529,-0.13725 0.394748,-0.250238 0.427151,-0.251086 0.120012,-0.0031 1.175254,1.683153 1.537818,2.457452 0.685305,1.463557 0.990716,2.594831 1.148594,4.254527 0.12073,1.269181 0.0073,2.555551 -0.335562,3.806807 -1.082786,3.951114 -4.550091,6.640541 -9.521765,7.385589 -1.088078,0.163058 -2.89347,0.220679 -4.003409,0.127773 z m 1.950242,-18.857366 c 0.174625,-0.01827 0.460375,-0.01827 0.635,0 0.174625,0.01827 0.03175,0.03321 -0.3175,0.03321 -0.34925,0 -0.492125,-0.01494 -0.3175,-0.03321 z m -2.243667,-0.07906 c 0.05821,-0.02349 0.153459,-0.02349 0.211667,0 0.05821,0.02349 0.01058,0.04271 -0.105833,0.04271 -0.116417,0 -0.164042,-0.01922 -0.105834,-0.04271 z m 3.725334,-0.0037 c 0.104775,-0.02018 0.276225,-0.02018 0.381,0 0.104775,0.02018 0.01905,0.03669 -0.1905,0.03669 -0.20955,0 -0.295275,-0.01651 -0.1905,-0.03669 z m 0.867833,-0.08746 c 0,-0.179068 -0.543221,-0.242535 -1.06928,-0.124928 -0.503174,0.112489 -0.532038,0.109382 -0.949685,-0.102256 -0.283001,-0.143407 -0.568544,-0.218272 -0.832515,-0.218272 -0.35773,0 -0.44135,-0.03884 -0.76274,-0.354259 l -0.360964,-0.354258 -0.658241,0.103743 c -0.471557,0.07432 -0.742127,0.07874 -0.954016,0.01559 -0.162676,-0.04848 -0.643181,-0.08815 -1.067789,-0.08815 -0.681236,0 -0.839608,-0.03065 -1.34685,-0.260642 -0.421548,-0.19114 -0.678666,-0.255166 -0.96421,-0.240102 -0.905769,0.04778 -0.9829,-0.04137 -0.324146,-0.374672 1.711494,-0.865937 7.135116,-1.186318 10.835602,-0.640076 0.360892,0.05327 0.656167,0.110916 0.656167,0.128095 0,0.01718 -0.275616,0.584022 -0.612479,1.25965 l -0.612481,1.228413 -0.297686,0.0012 c -0.163728,6.78e-4 -0.383412,0.02413 -0.488187,0.05221 -0.104775,0.02808 -0.1905,0.01402 -0.1905,-0.03124 z m 3.556,-0.664772 c 0,-0.02874 0.140638,-0.31989 0.312528,-0.646998 l 0.312528,-0.594742 0.195472,0.227249 c 0.241805,0.281115 0.242173,0.324975 0.005,0.592762 -0.180446,0.203712 -0.8255,0.533257 -0.8255,0.421729 z"
         id="path303"
         inkscape:connector-curvature="0" />
      <path
         style="fill:#4c4c4c;stroke-width:0.08466666"
         d="m 24.587652,40.468489 c -4.019824,-0.586799 -7.060109,-2.527409 -8.540466,-5.451368 -1.716401,-3.390183 -1.313089,-8.061935 0.994581,-11.520698 0.613758,-0.919908 0.652277,-0.958314 0.815478,-0.813083 0.219489,0.195317 1.143568,0.637057 1.804271,0.8625 4.008432,1.367742 11.143534,1.368344 15.103095,0.0013 0.840074,-0.290041 1.392006,-0.541606 1.694508,-0.772335 l 0.264305,-0.201595 0.169554,0.186453 c 0.530683,0.58357 1.335851,2.00336 1.761572,3.106261 0.510362,1.322179 0.719801,2.388907 0.774874,3.946629 0.08855,2.504715 -0.406991,4.319583 -1.673747,6.129894 -1.653538,2.36306 -4.603051,3.983284 -8.230737,4.521301 -1.118024,0.165813 -3.816211,0.168418 -4.937288,0.0048 z m 3.267684,-19.131066 c -0.250469,-0.13412 -0.524937,-0.205326 -0.801129,-0.207841 -0.37695,-0.0034 -0.457217,-0.04023 -0.781012,-0.358007 l -0.360885,-0.354182 -0.616439,0.09584 c -0.44725,0.06953 -0.720886,0.07068 -0.996987,0.0042 -0.209301,-0.05042 -0.70649,-0.08558 -1.104864,-0.07814 -0.642796,0.012 -0.788428,-0.01555 -1.293986,-0.24478 -0.460553,-0.208824 -0.665751,-0.254506 -1.071275,-0.238492 -0.810013,0.03199 -0.801069,-0.134538 0.02498,-0.465229 0.600601,-0.240438 1.374861,-0.413825 2.784487,-0.623558 1.365932,-0.203231 5.783378,-0.203999 7.21843,-0.0013 0.556412,0.07861 1.044913,0.176181 1.085556,0.216825 0.07769,0.07769 -0.987504,2.292257 -1.155123,2.401522 -0.15592,0.101638 -0.684657,0.07343 -1.051815,-0.05611 -0.294691,-0.103973 -0.411786,-0.104395 -0.836145,-0.003 -0.628034,0.150031 -0.594465,0.152852 -1.043798,-0.08775 z m 5.672666,-0.510415 c 0,-0.128979 0.522937,-1.055919 0.595701,-1.055919 0.151179,0 0.293917,0.420755 0.196108,0.578076 -0.153381,0.246703 -0.791809,0.631985 -0.791809,0.477843 z"
         id="path301"
         inkscape:connector-curvature="0" />
      <path
         style="fill:#242424;stroke-width:0.08466666"
         d="m 24.934336,40.506311 c -2.030488,-0.289113 -3.44305,-0.720801 -4.868333,-1.487794 -2.08385,-1.121392 -3.552103,-2.749632 -4.355636,-4.830244 -1.285583,-3.328797 -0.775638,-7.528873 1.283434,-10.5708 0.706157,-1.043227 0.685157,-1.020911 0.850622,-0.903862 2.689868,1.902782 10.794863,2.491066 15.960565,1.158464 0.791081,-0.204076 2.064821,-0.698127 2.516664,-0.976148 0.220043,-0.135394 0.423457,-0.246171 0.452031,-0.246171 0.08264,0 1.021843,1.431373 1.305527,1.989666 1.00778,1.983326 1.444908,3.946636 1.353874,6.080774 -0.11579,2.714487 -0.998576,4.733716 -2.849686,6.518191 -1.393083,1.342937 -2.994149,2.21427 -5.214396,2.837784 -0.731792,0.20551 -0.956402,0.248904 -2.074333,0.400755 -0.967788,0.131458 -3.522542,0.148675 -4.360333,0.02938 z"
         id="path299"
         inkscape:connector-curvature="0" />
      <path
         style="fill:#1c1c1c;stroke-width:0.08466666"
         d="m 25.449895,40.526653 c -0.02462,-0.03984 0.04933,-0.05445 0.164336,-0.03246 0.115008,0.02199 0.209105,0.05458 0.209105,0.07244 0,0.06551 -0.330085,0.03018 -0.373441,-0.03997 z m 1.220108,-0.0057 0.550333,-0.04889 v -7.873999 -7.874 l -0.550333,-0.04889 c -0.352001,-0.03127 -0.02156,-0.05415 0.916902,-0.0635 3.651316,-0.03637 7.10174,-0.710978 8.715691,-1.704051 0.230523,-0.141843 0.442275,-0.257896 0.470558,-0.257896 0.08167,0 1.048848,1.481286 1.327171,2.03264 0.958828,1.899426 1.425189,4.019826 1.333263,6.061923 -0.08774,1.949202 -0.570869,3.502814 -1.55499,5.000476 -0.478921,0.728836 -1.919402,2.143561 -2.695685,2.647486 -1.110738,0.721038 -3.11869,1.603189 -3.40185,1.49453 -0.06849,-0.02628 -0.103744,-0.01416 -0.07835,0.02693 0.03955,0.064 -0.181839,0.12885 -1.349714,0.395365 -0.669831,0.15286 -2.200239,0.287619 -3.127283,0.27537 -0.852355,-0.01126 -0.97982,-0.02583 -0.555716,-0.0635 z m 7.872789,-2.07363 c -0.05483,-0.05483 -0.112082,-0.05483 -0.166913,0 -0.05483,0.05483 -0.02621,0.08346 0.08346,0.08346 0.109663,0 0.138288,-0.02863 0.08346,-0.08346 z m 2.890383,-2.696835 c -0.08362,-0.08299 -0.09334,-0.07327 -0.0474,0.0474 0.0318,0.0835 0.07914,0.13049 0.105205,0.104422 0.02607,-0.02607 5.4e-5,-0.09439 -0.05781,-0.151819 z m 0.357377,-0.44674 c -0.02757,-0.07186 -0.06829,-0.112493 -0.09049,-0.0903 -0.02219,0.02219 -0.01524,0.08099 0.01546,0.130651 0.08348,0.135083 0.132281,0.10884 0.07503,-0.04035 z m 0.846667,-8.805333 c -0.02757,-0.07186 -0.06829,-0.112493 -0.09049,-0.0903 -0.02219,0.02219 -0.01524,0.08099 0.01546,0.130651 0.08349,0.135083 0.132282,0.10884 0.07503,-0.04035 z M 24.193503,40.373682 c 0.05821,-0.02349 0.153458,-0.02349 0.211666,0 0.05821,0.02349 0.01058,0.0427 -0.105833,0.0427 -0.116417,0 -0.164042,-0.01922 -0.105833,-0.0427 z m -0.841375,-0.171097 c 0.06112,-0.02446 0.134143,-0.02145 0.162278,0.0067 0.02813,0.02813 -0.02187,0.04814 -0.111125,0.04447 -0.09863,-0.0041 -0.118694,-0.02412 -0.05115,-0.05115 z m -0.449792,-0.111497 c -0.111653,-0.04798 -0.126074,-0.07435 -0.04233,-0.07742 0.06985,-0.0026 0.18415,0.03228 0.254,0.07742 0.154768,0.100019 0.02109,0.100019 -0.211667,0 z m -0.423333,-0.08467 c -0.161575,-0.06943 -0.160604,-0.07304 0.02117,-0.07872 0.104775,-0.0033 0.1905,0.03215 0.1905,0.07872 0,0.04657 -0.0095,0.08199 -0.02117,0.07872 -0.01164,-0.0033 -0.09737,-0.03869 -0.1905,-0.07872 z m -1.054291,-0.419044 c -0.06763,-0.04278 -0.153351,-0.059 -0.1905,-0.03604 -0.03715,0.02296 -0.06754,0.0014 -0.06754,-0.04792 0,-0.04931 0.02858,-0.08831 0.0635,-0.08666 0.103418,0.0049 0.494588,0.244843 0.402166,0.246702 -0.04657,9.4e-4 -0.139997,-0.0333 -0.207624,-0.07608 z m -0.850709,-0.347953 c 0,-0.04931 0.0381,-0.06612 0.08467,-0.03734 0.04657,0.02878 0.08467,0.06913 0.08467,0.08966 0,0.02053 -0.0381,0.03734 -0.08467,0.03734 -0.04657,0 -0.08467,-0.04035 -0.08467,-0.08966 z M 19.897444,38.86435 c -0.05755,-0.06934 -0.144297,-0.10155 -0.192783,-0.07158 -0.05287,0.03268 -0.06261,0.01316 -0.02433,-0.04878 0.04796,-0.0776 0.103816,-0.06707 0.224748,0.04237 0.08851,0.0801 0.160928,0.158783 0.160928,0.17485 0,0.06294 -0.0687,0.02346 -0.168559,-0.09686 z m -1.055491,-0.630082 c -0.02679,-0.04335 -0.01634,-0.09882 0.02322,-0.123275 0.03957,-0.02445 0.07194,0.01101 0.07194,0.07882 0,0.142762 -0.0267,0.155235 -0.09516,0.04446 z m 0.354805,-0.270357 c 0.05743,-0.05786 0.125751,-0.08388 0.151819,-0.05781 0.02607,0.02607 -0.02092,0.07341 -0.104422,0.105205 -0.120667,0.04595 -0.130392,0.03622 -0.0474,-0.0474 z m -0.906303,-0.15552 c -0.0685,-0.04332 -0.106541,-0.09677 -0.08453,-0.118781 0.02201,-0.02201 0.113913,0.01402 0.204231,0.08006 0.180631,0.132081 0.0796,0.16476 -0.119697,0.03872 z M 17.85387,37.402922 c -0.107485,-0.137055 -0.103501,-0.138852 0.05313,-0.02396 0.09313,0.06831 0.185208,0.13499 0.204612,0.148166 0.0194,0.01318 -0.0045,0.02396 -0.05313,0.02396 -0.04863,0 -0.140701,-0.06667 -0.204611,-0.148166 z m -0.471463,-0.506637 c -0.148827,-0.172641 -0.254556,-0.329934 -0.23495,-0.349539 0.03933,-0.03933 0.332193,0.284777 0.46762,0.517509 0.130999,0.225125 0.06534,0.177725 -0.23267,-0.16797 z m -0.568285,-0.65753 c -0.07628,-0.116417 -0.125631,-0.211667 -0.109672,-0.211667 0.01596,0 0.111835,0.09525 0.213058,0.211667 0.101223,0.116417 0.150576,0.211667 0.109673,0.211667 -0.0409,0 -0.13678,-0.09525 -0.213059,-0.211667 z m -1.324,-2.758918 c -0.05198,-0.09712 -0.07856,-0.192532 -0.05907,-0.212024 0.01949,-0.01949 0.07891,0.05997 0.132044,0.176584 0.116677,0.256078 0.05987,0.283666 -0.07298,0.03544 z m -0.328101,-1.396804 c 0.0041,-0.09863 0.02413,-0.118694 0.05115,-0.05115 0.02446,0.06112 0.02145,0.134145 -0.0067,0.162278 -0.02814,0.02813 -0.04814,-0.02187 -0.04447,-0.111125 z m 0,-3.640666 c 0.0041,-0.09863 0.02413,-0.118694 0.05115,-0.05115 0.02446,0.06112 0.02145,0.134144 -0.0067,0.162278 -0.02814,0.02813 -0.04814,-0.02187 -0.04447,-0.111125 z m 0.250008,-1.279114 c -0.0015,-0.05546 0.03541,-0.124384 0.08197,-0.153164 0.04657,-0.02878 0.08525,-0.154854 0.08596,-0.280164 6.78e-4,-0.12531 0.04241,-0.284986 0.09265,-0.354836 0.07598,-0.105622 0.08289,-0.100895 0.04104,0.02809 -0.02768,0.0853 -0.05032,0.239942 -0.05032,0.343651 0,0.19212 -0.246395,0.6004 -0.251308,0.416421 z m 0.343222,-1.042164 c -0.0026,-0.06985 0.03228,-0.18415 0.07742,-0.254 0.100018,-0.154768 0.100018,-0.02109 0,0.211667 -0.04798,0.111653 -0.07435,0.126073 -0.07742,0.04233 z m 0.162086,-0.488997 c 0,-0.05037 0.05533,-0.14691 0.122968,-0.214542 0.06763,-0.06763 0.09621,-0.152663 0.0635,-0.188956 -0.03271,-0.03629 -0.01184,-0.03858 0.04636,-0.0051 0.135573,0.07802 0.136298,0.07454 -0.0635,0.304911 -0.09313,0.107384 -0.169333,0.154035 -0.169333,0.103669 z m 0.338666,-0.814278 c 0,-0.0183 0.05913,-0.05596 0.131398,-0.0837 0.07535,-0.02891 0.109332,-0.01472 0.07967,0.03327 -0.04972,0.08045 -0.211067,0.118995 -0.211067,0.05042 z m 7.727444,-0.364065 c 0.08238,-0.02147 0.196678,-0.02005 0.254,0.0031 0.05732,0.02319 -0.01008,0.04076 -0.149778,0.03903 -0.1397,-0.0017 -0.1866,-0.0207 -0.104222,-0.04217 z m -1.439333,-0.169333 c 0.08238,-0.02147 0.196678,-0.02005 0.254,0.0031 0.05732,0.02319 -0.01008,0.04076 -0.149778,0.03903 -0.1397,-0.0017 -0.1866,-0.0207 -0.104222,-0.04217 z m -5.728183,-0.264469 c -0.05346,-0.0865 0.344801,-0.692858 0.455082,-0.692858 0.04266,0 -0.0135,0.09827 -0.124819,0.218383 -0.111313,0.120109 -0.183097,0.268655 -0.159517,0.330102 0.04865,0.126768 -0.102593,0.254647 -0.170746,0.144373 z m 3.989494,-0.02603 c 0.05743,-0.05786 0.12575,-0.08388 0.151818,-0.05781 0.02607,0.02607 -0.02092,0.07341 -0.104422,0.105206 -0.120667,0.04595 -0.130391,0.03622 -0.0474,-0.0474 z m -0.78404,-0.162524 c -0.02752,-0.04453 0.02841,-0.08097 0.124288,-0.08097 0.204433,0 0.225057,0.04708 0.05004,0.114245 -0.06836,0.02623 -0.146808,0.01126 -0.17433,-0.03327 z m -2.749382,-0.620936 c 0,-0.01758 0.06668,-0.08426 0.148167,-0.148167 0.134286,-0.105314 0.137281,-0.10232 0.03197,0.03197 -0.110606,0.141033 -0.180134,0.185884 -0.180134,0.1162 z m 0.681376,-0.30241 c -0.06763,-0.04278 -0.149359,-0.06147 -0.181628,-0.04152 -0.03227,0.01994 -0.08052,-0.02067 -0.107219,-0.09025 -0.06326,-0.164849 -0.0281,-0.159932 0.303925,0.0425 0.152467,0.09296 0.239113,0.168576 0.192546,0.168037 -0.04657,-5.08e-4 -0.139997,-0.03598 -0.207624,-0.07876 z"
         id="path297"
         inkscape:connector-curvature="0" />
    </g>
  </g>
</svg>
